<?xml version="1.0" encoding="utf-8"?>
<!-- Generator: Adobe Illustrator 21.0.0, SVG Export Plug-In . SVG Version: 6.00 Build 0)  -->
<svg version="1.1" id="Layer_1" xmlns="http://www.w3.org/2000/svg" xmlns:xlink="http://www.w3.org/1999/xlink" x="0px" y="0px"
	 viewBox="0 0 95.8 42.2" style="enable-background:new 0 0 95.8 42.2;" xml:space="preserve">
<style type="text/css">
	.st0{fill:#FFFFFF;}
</style>
<title>logo_white</title>
<path class="st0" d="M43.1,24.5l-10-17.6c-2.4-5.8-9.1-8.4-14.8-6C15.7,2,13.6,4,12.4,6.6L2.2,24.2c-3.7,5-2.6,12.1,2.4,15.8
	c1.9,1.4,4.3,2.2,6.7,2.2h22.5c6.2,0,11.3-5,11.3-11.3l0,0C45.1,28.6,44.4,26.4,43.1,24.5z M25.1,33.6H20c-0.5,0-0.9-0.4-0.9-0.9
	s0.4-0.9,0.9-0.9h5.1c0.6,0,1,0.4,0.9,0.9C26.1,33.2,25.6,33.6,25.1,33.6z M32.5,18.8c0,0-0.3,0.6-0.5,1.1c-0.2,0.3-0.4,0.7-0.5,1
	L31,22.6l-0.5,1.9l-0.7,2.1L29,29.8l-0.1,0.3l-0.1,0.1h-4c-0.4,0-0.8-0.4-0.8-0.8s0.3-0.8,0.8-0.8l0,0h2l-0.6-5.7
	c0.3-0.1,0.6-0.3,0.9-0.5c0.6-0.5,1-1.2,1.1-2h-3.6l0.5,6.5h-5.4l0.4-6.6h-3.6c0.2,0.8,0.5,1.5,1.1,2c0.3,0.2,0.6,0.4,0.9,0.5
	l-0.6,5.7h2c0.4,0,0.8,0.4,0.8,0.8s-0.4,0.8-0.8,0.8l0,0h-4L15.8,30v-0.2l-0.4-1.6L15,26.6l-0.7-2.1v-0.9l-0.2-0.9L13.6,21
	c-0.2-0.3-0.4-0.7-0.5-1c-0.2-0.4-0.4-0.7-0.5-1.1c-0.5-1.1-0.1-2.5,0.9-3.2c0.5-0.4,1-0.7,1.6-0.9l2.2-0.1c0.3-0.1,0.7-0.2,1-0.3
	s0.7-0.2,1-0.3c0.1,0,0.1,0,0.2-0.1s0.1-0.1,0.2-0.1c0.4-0.2,0.9-0.3,1.3-0.4c0.5-0.1,1-0.1,1.5-0.1s1,0,1.5,0.1
	c0.5,0,1,0.2,1.4,0.4c0.1,0,0.1,0,0.2,0.1c0.1,0,0.2,0,0.2,0.1c0.3,0.1,0.7,0.2,1,0.3s0.7,0.2,1,0.3l2.2,0.1
	c0.6,0.2,1.1,0.5,1.6,0.9C32.5,16.5,32.9,17.7,32.5,18.8z"/>
<path class="st0" d="M51.7,22.2h-2.5v-6.3c0-0.8,0.1-1.6,0.5-2.3c0.3-0.5,0.7-1,1.3-1.2c0.5-0.2,1.1-0.4,1.7-0.4
	c0.6,0,1.2,0.1,1.7,0.3c0.4,0.2,0.7,0.5,1,0.8s0.5,0.6,0.6,1s0.2,0.8,0.2,1.2c0,0.5-0.1,0.9-0.2,1.4c-0.2,0.4-0.3,0.8-0.6,1
	c-0.3,0.3-0.7,0.6-1.1,0.8c-0.5,0.2-1.1,0.3-1.6,0.3h-0.6v-2.3c0.4,0,0.8-0.1,1.2-0.3c0.3-0.2,0.4-0.5,0.4-0.8s-0.1-0.6-0.3-0.9
	c-0.2-0.2-0.5-0.4-0.8-0.4c-0.2,0-0.5,0.1-0.6,0.3c-0.2,0.2-0.2,0.5-0.2,0.9v6.9H51.7z"/>
<path class="st0" d="M59.8,12.2V19c0,0.3,0.1,0.6,0.4,0.8c0.5,0.4,1.1,0.4,1.6,0c0.2-0.2,0.3-0.5,0.3-0.8v-6.8h2.5v6.6
	c0,0.4-0.1,0.9-0.2,1.3s-0.3,0.8-0.6,1.2c-0.3,0.4-0.7,0.7-1.2,0.9c-0.5,0.2-1.1,0.3-1.7,0.3c-0.7,0-1.4-0.2-2-0.5
	c-0.5-0.4-0.9-0.8-1.2-1.4s-0.4-1.2-0.4-1.8v-6.5L59.8,12.2L59.8,12.2z"/>
<path class="st0" d="M68.7,22.2h-2.4l0.8-8.1c0-0.4,0.1-0.8,0.2-1.2c0.2-0.7,0.9-1.1,1.6-1c0.5,0,1,0.2,1.4,0.5
	c0.3,0.4,0.5,0.8,0.5,1.3l0.8,4.8h0.1l0.7-4.9c0-0.5,0.2-1,0.6-1.4c0.4-0.3,0.8-0.4,1.3-0.4s1,0.2,1.3,0.5c0.3,0.4,0.5,0.9,0.5,1.4
	l0.8,8.3h-2.4l-0.3-7.9l-1.3,7c-0.1,0.3-0.2,0.6-0.3,0.9c-0.2,0.3-0.5,0.4-0.8,0.5c-0.3,0-0.6-0.1-0.8-0.3c-0.2-0.2-0.4-0.5-0.4-0.8
	l-1.5-7.3L68.7,22.2z"/>
<path class="st0" d="M85.3,15.5v6.7h-2.5v-3.5h-1.5v-2.3h1.6v-0.9c0-0.2,0-0.5-0.1-0.7s-0.2-0.3-0.4-0.4c-0.2-0.1-0.3-0.1-0.5-0.1
	c-0.7,0-1,0.5-1,1.5v6.5h-2.6v-6.7c0-0.5,0.1-1.1,0.3-1.6c0.2-0.4,0.5-0.8,0.8-1.2c0.3-0.3,0.7-0.6,1.1-0.7c0.4-0.2,0.9-0.2,1.3-0.2
	s0.9,0.1,1.3,0.2c0.4,0.2,0.8,0.4,1.1,0.7c0.3,0.3,0.6,0.8,0.8,1.2C85.2,14.5,85.3,15,85.3,15.5z"/>
<path class="st0" d="M92.5,12.2v2.3H90c-0.4,0-0.6,0.1-0.6,0.4s0.2,0.5,0.5,0.7c0.6,0.4,1.1,0.7,1.5,1s0.7,0.6,1,0.9
	c0.2,0.3,0.4,0.6,0.6,0.9c0.1,0.3,0.2,0.7,0.2,1s0,0.6-0.1,0.9c-0.1,0.6-0.5,1.1-1,1.5c-0.7,0.4-1.4,0.6-2.2,0.5H87V20h2.5
	c0.3,0,0.6-0.1,0.8-0.2c0.2-0.1,0.3-0.2,0.3-0.4c0-0.2-0.1-0.4-0.3-0.6c-0.3-0.2-0.7-0.5-1.2-0.9c-0.5-0.3-0.9-0.6-1.2-1
	c-0.3-0.2-0.5-0.5-0.6-0.9c-0.2-0.3-0.2-0.7-0.2-1.1v-0.5c0.1-0.4,0.2-0.8,0.5-1.1s0.6-0.6,1-0.8s0.8-0.3,1.3-0.3L92.5,12.2z"/>
<path class="st0" d="M95.5,14c-0.4,0.5-1.2,0.6-1.7,0.1c-0.5-0.4-0.6-1.2-0.1-1.7c0.4-0.5,1.2-0.6,1.7-0.1c0.3,0.2,0.4,0.6,0.4,0.9
	C95.9,13.5,95.8,13.8,95.5,14z M94.1,12.6c-0.2,0.2-0.3,0.4-0.3,0.6c0,0.3,0.1,0.5,0.3,0.7c0.2,0.2,0.4,0.2,0.7,0.2
	c0.2,0,0.5-0.1,0.6-0.3c0.2-0.2,0.3-0.4,0.3-0.7c0-0.2-0.1-0.5-0.3-0.6c-0.2-0.2-0.4-0.3-0.6-0.3C94.5,12.3,94.3,12.4,94.1,12.6z
	 M94.3,13.8v-1.2h0.6c0.1,0,0.2,0,0.2,0.1s0.2,0.2,0.2,0.3s0,0.2-0.1,0.2s-0.1,0.1-0.2,0.1c0.1,0,0.1,0,0.2,0.1s0.1,0.1,0.1,0.3v0.1
	H95v-0.3c0-0.1,0-0.1-0.1-0.1h-0.3v0.4L94.3,13.8z M94.9,12.9h-0.3v0.4h0.3l0.1-0.1C95,12.9,94.9,12.9,94.9,12.9z"/>
<g>
	<path class="st0" d="M65.7,23.8h1.5l1.1,6.9h-1.1L67,29.3l0,0h-1.2l-0.2,1.4h-1L65.7,23.8z M66.9,28.4L66.4,25l0,0l-0.5,3.4H66.9z"
		/>
	<path class="st0" d="M69.3,24.8h-1.1v-1h3.4v1h-1.1v5.9h-1.1v-5.9H69.3z"/>
	<path class="st0" d="M72,23.8h1.1v6.9H72V23.8z"/>
	<path class="st0" d="M73.7,29.7l2-4.9h-1.9v-1h3.1v1l-2,4.9h2v1h-3.2V29.7z"/>
	<path class="st0" d="M78.3,23.8h1.5l1.1,6.9h-1.1l-0.2-1.4l0,0h-1.2l-0.2,1.4h-1L78.3,23.8z M79.5,28.4L79,25l0,0l-0.5,3.4H79.5z"
		/>
	<path class="st0" d="M81.4,23.8H83c1.1,0,1.6,0.6,1.6,1.7v0.7c0,1.1-0.5,1.7-1.6,1.7h-0.5v2.8h-1.1V23.8z M83,26.9
		c0.3,0,0.5-0.2,0.5-0.7v-0.8c0-0.5-0.2-0.7-0.5-0.7h-0.5v2.1H83V26.9z"/>
	<path class="st0" d="M85.7,23.8h1.5l1.1,6.9h-1.1L87,29.3l0,0h-1.2l-0.2,1.4h-1L85.7,23.8z M86.9,28.4L86.4,25l0,0l-0.5,3.4H86.9z"
		/>
	<path class="st0" d="M88.8,23.8h1.4l1.1,4.1l0,0v-4.1h1v6.9h-1.1l-1.3-5l0,0v5h-1L88.8,23.8L88.8,23.8z"/>
</g>
</svg>
