<svg id="Layer_1" data-name="Layer 1" xmlns="http://www.w3.org/2000/svg" viewBox="0 0 95.84 42.2"><defs><style>.cls-1{fill:#001f42;}.cls-2{fill:#a29063;}</style></defs><title>logo</title><path class="cls-1" d="M44.8,53.4l-10-17.6a11.31,11.31,0,0,0-20.7-.3L3.9,53.1a11.3,11.3,0,0,0,9.1,18H35.5A11.29,11.29,0,0,0,46.8,59.8a10.82,10.82,0,0,0-2-6.4Z" transform="translate(-1.7 -28.9)"/><path class="cls-2" d="M26.8,60.6H21.7a.9.9,0,0,0,0,1.8h5.1a.9.9,0,0,0,.9-.9c.1-.5-.3-.9-.9-.9Zm6.4-16.1a4.28,4.28,0,0,0-1.6-.9l-2.2-.1a6.47,6.47,0,0,1-1-.3,6.59,6.59,0,0,1-1-.3.31.31,0,0,1-.2-.1.35.35,0,0,1-.2-.1,8.4,8.4,0,0,0-1.4-.4,9.23,9.23,0,0,0-1.5-.1,8.64,8.64,0,0,0-1.5.1,4,4,0,0,0-1.3.4.31.31,0,0,0-.2.1c-.1,0-.1.1-.2.1a6.47,6.47,0,0,0-1,.3,6.59,6.59,0,0,0-1,.3l-2.2.1a5.44,5.44,0,0,0-1.6.9,2.77,2.77,0,0,0-.9,3.2,6.42,6.42,0,0,0,.5,1.1,8.12,8.12,0,0,0,.5,1l.5,1.7.2.9.2.9.7,2.1.4,1.6.4,1.6v.2l.1.1h4a.8.8,0,1,0,0-1.6h-2l.6-5.7a2.64,2.64,0,0,1-.9-.5,3.2,3.2,0,0,1-1.1-2h3.6l-.4,6.6h5.4l-.5-6.5H30a3.76,3.76,0,0,1-1.1,2,2.64,2.64,0,0,1-.9.5l.6,5.7h-2a.8.8,0,0,0,0,1.6h4l.1-.1.1-.3.8-3.2.7-2.1.5-1.9.5-1.7a7.91,7.91,0,0,1,.5-1c.2-.5.5-1,.5-1.1a3.07,3.07,0,0,0-1.1-3.1Z" transform="translate(-1.7 -28.9)"/><path class="cls-2" d="M53.4,51.1H50.9V44.8a4.9,4.9,0,0,1,.5-2.3,2.5,2.5,0,0,1,1.3-1.2,4.71,4.71,0,0,1,1.7-.4,4.31,4.31,0,0,1,1.7.3,2.72,2.72,0,0,1,1,.8,2.66,2.66,0,0,1,.6,1,5,5,0,0,1,.2,1.2,5.9,5.9,0,0,1-.2,1.4c-.2.4-.3.8-.6,1a4.44,4.44,0,0,1-1.1.8,3.51,3.51,0,0,1-1.6.3h-.6V45.4a2.13,2.13,0,0,0,1.2-.3.91.91,0,0,0,.4-.8,1.61,1.61,0,0,0-.3-.9,1.23,1.23,0,0,0-.8-.4.71.71,0,0,0-.6.3c-.2.2-.2.5-.2.9v6.9Z" transform="translate(-1.7 -28.9)"/><path class="cls-2" d="M61.5,41.1v6.8a.91.91,0,0,0,.4.8,1.22,1.22,0,0,0,1.6,0,1,1,0,0,0,.3-.8V41.1h2.5v6.6a5.85,5.85,0,0,1-.2,1.3,3.38,3.38,0,0,1-.6,1.2,2.73,2.73,0,0,1-1.2.9,4.67,4.67,0,0,1-1.7.3,3.94,3.94,0,0,1-2-.5,4.07,4.07,0,0,1-1.2-1.4,3.92,3.92,0,0,1-.4-1.8V41.2h2.5Z" transform="translate(-1.7 -28.9)"/><path class="cls-2" d="M70.4,51.1H68l.8-8.1a3.73,3.73,0,0,1,.2-1.2,1.49,1.49,0,0,1,1.6-1,2,2,0,0,1,1.4.5,2.54,2.54,0,0,1,.5,1.3l.8,4.8h.1l.7-4.9a2.29,2.29,0,0,1,.6-1.4,1.84,1.84,0,0,1,1.3-.4,1.73,1.73,0,0,1,1.3.5,2,2,0,0,1,.5,1.4l.8,8.3H76.2L75.9,43l-1.3,7a3.18,3.18,0,0,1-.3.9,1.37,1.37,0,0,1-.8.5,1.14,1.14,0,0,1-.8-.3,1.23,1.23,0,0,1-.4-.8L70.8,43Z" transform="translate(-1.7 -28.9)"/><path class="cls-2" d="M87,44.4v6.7H84.5V47.6H83V45.3h1.6v-.9a1.48,1.48,0,0,0-.1-.7.78.78,0,0,0-.4-.4.9.9,0,0,0-.5-.1c-.7,0-1,.5-1,1.5v6.5H80V44.5a4.15,4.15,0,0,1,.3-1.6,5,5,0,0,1,.8-1.2,2.59,2.59,0,0,1,1.1-.7,3,3,0,0,1,1.3-.2,5.07,5.07,0,0,1,1.3.2,4.13,4.13,0,0,1,1.1.7,3.6,3.6,0,0,1,.8,1.2A3.34,3.34,0,0,1,87,44.4Z" transform="translate(-1.7 -28.9)"/><path class="cls-2" d="M94.2,41.1v2.3H91.7c-.4,0-.6.1-.6.4s.2.5.5.7c.6.4,1.1.7,1.5,1a9,9,0,0,1,1,.9,4.7,4.7,0,0,1,.6.9,3,3,0,0,1,.2,1,2.77,2.77,0,0,1-.1.9,2.52,2.52,0,0,1-1,1.5,3.79,3.79,0,0,1-2.2.5H88.7V48.9h2.5a1.88,1.88,0,0,0,.8-.2c.2-.1.3-.2.3-.4a.86.86,0,0,0-.3-.6q-.45-.3-1.2-.9a4.43,4.43,0,0,1-1.2-1,1.8,1.8,0,0,1-.6-.9,2,2,0,0,1-.2-1.1v-.5a2.22,2.22,0,0,1,.5-1.1,3.92,3.92,0,0,1,1-.8,2.77,2.77,0,0,1,1.3-.3Z" transform="translate(-1.7 -28.9)"/><path class="cls-2" d="M97.2,42.9a1.22,1.22,0,1,1,.3-.8A.67.67,0,0,1,97.2,42.9Zm-1.4-1.4a.86.86,0,0,0-.3.6.91.91,0,0,0,.3.7.84.84,0,0,0,.7.2.6.6,0,0,0,.6-.3.91.91,0,0,0,.3-.7.71.71,0,0,0-.3-.6.86.86,0,0,0-.6-.3A1.61,1.61,0,0,0,95.8,41.5Zm.2,1.2V41.5h.6c.1,0,.2,0,.2.1s.2.2.2.3,0,.2-.1.2-.1.1-.2.1c.1,0,.1,0,.2.1s.1.1.1.3v.1h-.3v-.3a.1.1,0,0,0-.1-.1h-.3v.4Zm.6-.9h-.3v.4h.3l.1-.1C96.7,41.8,96.6,41.8,96.6,41.8Z" transform="translate(-1.7 -28.9)"/><path class="cls-2" d="M64,52.46c1,0,1.54.61,1.54,1.67v.21h-1v-.28c0-.48-.19-.66-.52-.66s-.52.18-.52.66c0,1.37,2,1.63,2,3.53,0,1.06-.53,1.67-1.56,1.67s-1.56-.61-1.56-1.67v-.41h1v.48c0,.47.21.65.54.65s.54-.17.54-.65c0-1.37-2-1.63-2-3.53C62.48,53.07,63,52.46,64,52.46Z" transform="translate(-1.7 -28.9)"/><path class="cls-2" d="M68.49,59.19,68.31,58H67l-.18,1.21h-1L67,52.53h1.53l1.06,6.65Zm-.32-2.11-.5-3.37-.5,3.37Z" transform="translate(-1.7 -28.9)"/><path class="cls-2" d="M71,59.19H70V52.53h1.31l1.07,4v-4h.93v6.65H72.26L71,54.37Z" transform="translate(-1.7 -28.9)"/><path class="cls-2" d="M78.49,52.53h1.45v6.65H79V54.42l-.72,4.77h-1l-.78-4.71v4.71h-.91V52.53H77l.77,4.72Z" transform="translate(-1.7 -28.9)"/><path class="cls-2" d="M83,59.19,82.85,58H81.56l-.18,1.21h-1l1.06-6.65H83l1.06,6.65Zm-.32-2.11-.5-3.37-.5,3.37Z" transform="translate(-1.7 -28.9)"/><path class="cls-2" d="M87.49,52.53v1H86.4v5.7h-1v-5.7H84.26v-1Z" transform="translate(-1.7 -28.9)"/><path class="cls-2" d="M90.43,55.34v1H89v1.95H90.8v1H87.95V52.53H90.8v1H89v1.85Z" transform="translate(-1.7 -28.9)"/><path class="cls-2" d="M92.94,52.46a1.48,1.48,0,0,1,1.59,1.67v3.46a1.59,1.59,0,1,1-3.17,0V54.13A1.48,1.48,0,0,1,92.94,52.46Zm0,5.86c.33,0,.54-.18.54-.66V54.06c0-.48-.21-.66-.54-.66s-.54.18-.54.66v3.59C92.4,58.13,92.61,58.31,92.94,58.31Z" transform="translate(-1.7 -28.9)"/></svg>