<?xml version="1.0" encoding="utf-8"?>
<!-- Generator: Adobe Illustrator 22.1.0, SVG Export Plug-In . SVG Version: 6.00 Build 0)  -->
<svg version="1.1" id="Layer_1" xmlns="http://www.w3.org/2000/svg" xmlns:xlink="http://www.w3.org/1999/xlink" x="0px" y="0px"
	 viewBox="0 0 100 100" style="enable-background:new 0 0 100 100;" xml:space="preserve">
<style type="text/css">
	.st0{fill:#FFFFFF;}
</style>
<g>
	<path class="st0" d="M44.8,53.4l-10-17.6c-1.7-4-5.7-6.9-10.4-6.9c-4.6,0-8.5,2.7-10.3,6.6L3.9,53.1c-1.4,1.9-2.2,4.2-2.2,6.7
		c0,6.2,5,11.3,11.3,11.3c0.3,0,22.2,0,22.5,0c6.2,0,11.3-5,11.3-11.3C46.8,57.4,46.1,55.2,44.8,53.4z M26.8,62.5h-5.1
		c-0.5,0-0.9-0.4-0.9-0.9s0.4-0.9,0.9-0.9h5.1c0.6,0,1,0.4,0.9,0.9C27.8,62.1,27.3,62.5,26.8,62.5z M34.2,47.7c0,0-0.3,0.6-0.5,1.1
		c-0.3,0.5-0.5,1-0.5,1l-0.5,1.7l-0.5,1.9l-0.7,2.1l-0.8,3.2l-0.1,0.3l-0.1,0.1h-4c0,0,0,0,0,0c-0.4,0-0.8-0.4-0.8-0.8
		c0-0.5,0.4-0.8,0.8-0.8h2l-0.6-5.7c0,0,0.4-0.1,0.9-0.5c0.5-0.4,0.9-1,1.1-2c0,0-3.6,0-3.6,0l0.5,6.5h-5.4l0.4-6.6h-3.6
		c0.2,1,0.7,1.6,1.1,2c0.5,0.4,0.9,0.5,0.9,0.5l-0.6,5.7h2c0.5,0,0.8,0.4,0.8,0.8c0,0.5-0.4,0.8-0.8,0.8h-4l-0.1-0.1l0-0.2l-0.4-1.6
		l-0.4-1.6l-0.7-2.1L16,52.5l-0.2-0.9l-0.5-1.7c0,0-0.3-0.5-0.5-1c-0.3-0.5-0.5-1.1-0.5-1.1c-0.5-1.6,0.1-2.6,0.9-3.2
		s1.6-0.9,1.6-0.9l2.2-0.1c0,0,0.5-0.1,1-0.3c0.5-0.1,1-0.3,1-0.3c0,0,0.1,0,0.2-0.1c0,0,0.1-0.1,0.2-0.1c0.3-0.1,0.8-0.3,1.3-0.4
		c0.6-0.1,1.1-0.1,1.5-0.1c0.3,0,0.9,0,1.5,0.1s1.1,0.2,1.4,0.4c0,0,0.1,0,0.2,0.1c0.1,0,0.2,0,0.2,0.1c0,0,0.5,0.1,1,0.3
		c0.5,0.1,1,0.3,1,0.3l2.2,0.1c0,0,0.9,0.3,1.6,0.9S34.6,46.2,34.2,47.7z"/>
	<g>
		<path class="st0" d="M53.4,51.1h-2.5v-6.3c0-1,0.2-1.7,0.5-2.3c0.3-0.6,0.8-1,1.3-1.2c0.5-0.2,1.1-0.4,1.7-0.4
			c0.7,0,1.2,0.1,1.7,0.3c0.4,0.2,0.8,0.5,1,0.8c0.3,0.3,0.5,0.7,0.6,1c0.1,0.4,0.2,0.8,0.2,1.2c0,0.5-0.1,1-0.2,1.4
			c-0.2,0.4-0.3,0.8-0.6,1c-0.3,0.3-0.7,0.6-1.1,0.8c-0.4,0.2-0.9,0.3-1.6,0.3c-0.1,0-0.2,0-0.3,0c-0.1,0-0.2,0-0.3,0v-2.3
			c0.5,0,0.9-0.1,1.2-0.3c0.3-0.2,0.4-0.5,0.4-0.8c0-0.3-0.1-0.6-0.3-0.9c-0.2-0.2-0.5-0.4-0.8-0.4c-0.2,0-0.5,0.1-0.6,0.3
			c-0.2,0.2-0.2,0.5-0.2,0.9V51.1z"/>
		<path class="st0" d="M61.5,41.1v6.8c0,0.3,0.1,0.6,0.4,0.8c0.2,0.2,0.5,0.3,0.8,0.3c0.3,0,0.6-0.1,0.8-0.3
			c0.2-0.2,0.3-0.4,0.3-0.8v-6.8h2.5v6.6c0,0.4-0.1,0.9-0.2,1.3c-0.1,0.4-0.3,0.8-0.6,1.2c-0.3,0.4-0.7,0.7-1.2,0.9
			c-0.5,0.2-1.1,0.3-1.7,0.3c-0.8,0-1.5-0.2-2-0.5c-0.5-0.4-0.9-0.8-1.2-1.4c-0.3-0.6-0.4-1.2-0.4-1.8v-6.5H61.5z"/>
		<path class="st0" d="M70.4,51.1H68l0.8-8.1c0-0.5,0.1-0.9,0.2-1.2c0.1-0.3,0.3-0.5,0.5-0.7c0.3-0.2,0.6-0.3,1.1-0.3
			c0.6,0,1.1,0.2,1.4,0.5c0.3,0.3,0.4,0.8,0.5,1.3l0.8,4.8h0.1l0.7-4.9c0.1-0.7,0.3-1.1,0.6-1.4c0.3-0.3,0.8-0.4,1.3-0.4
			c0.6,0,1,0.2,1.3,0.5c0.3,0.3,0.5,0.8,0.5,1.4l0.8,8.3h-2.4L75.9,43L74.6,50c0,0.3-0.2,0.6-0.3,0.9c-0.2,0.3-0.5,0.4-0.8,0.5
			c-0.3,0-0.6-0.1-0.8-0.3c-0.2-0.2-0.4-0.5-0.4-0.8L70.8,43L70.4,51.1z"/>
		<path class="st0" d="M87,44.4v6.7h-2.5v-3.5H83v-2.3h1.6v-0.9c0-0.3,0-0.5-0.1-0.7c-0.1-0.2-0.2-0.3-0.4-0.4
			c-0.2-0.1-0.3-0.1-0.5-0.1c-0.7,0-1,0.5-1,1.5v6.5H80v-6.7c0-0.6,0.1-1.1,0.3-1.6c0.2-0.5,0.5-0.8,0.8-1.2
			c0.3-0.3,0.7-0.6,1.1-0.7c0.4-0.2,0.9-0.2,1.3-0.2c0.5,0,0.9,0.1,1.3,0.2c0.4,0.2,0.8,0.4,1.1,0.7c0.3,0.3,0.6,0.7,0.8,1.2
			C86.9,43.3,87,43.8,87,44.4z"/>
		<path class="st0" d="M94.2,41.1v2.3h-2.5c-0.4,0-0.6,0.1-0.6,0.4c0,0.3,0.2,0.5,0.5,0.7c0.6,0.4,1.1,0.7,1.5,1
			c0.4,0.3,0.7,0.6,1,0.9c0.3,0.3,0.4,0.6,0.6,0.9c0.1,0.3,0.2,0.6,0.2,1c0,0.3,0,0.6-0.1,0.9c-0.1,0.6-0.5,1.1-1,1.5
			c-0.6,0.4-1.3,0.5-2.2,0.5h-2.9v-2.3h2.5c0.3,0,0.6-0.1,0.8-0.2c0.2-0.1,0.3-0.2,0.3-0.4c0-0.2-0.1-0.4-0.3-0.6
			c-0.3-0.2-0.7-0.5-1.2-0.9c-0.6-0.4-1-0.7-1.2-1c-0.3-0.3-0.5-0.5-0.6-0.9c-0.2-0.3-0.2-0.7-0.2-1.1c0-0.2,0-0.3,0-0.5
			c0.1-0.4,0.2-0.8,0.5-1.1c0.3-0.3,0.6-0.6,1-0.8c0.4-0.2,0.8-0.3,1.3-0.3H94.2z"/>
		<g>
			<path class="st0" d="M81.1,52.6v6.7h-1v-3.3l-0.8,2.3h-0.6l-0.8-2.3v3.3h-1v-6.7h0.6l1.6,3.7l1.6-3.7H81.1z"/>
			<path class="st0" d="M84.1,58.2h-1.2l-0.2,1.1h-1.1l1.3-6.7h1l1.3,6.7h-1.1L84.1,58.2z M83.9,57.1l-0.4-2.4L83,57.1H83.9z"/>
			<path class="st0" d="M87.4,59.2h-1.6v-6.7h1.6c0.5,0,0.8,0.1,1.1,0.4c0.3,0.3,0.5,0.7,0.5,1.2v3.4c0,0.3,0,0.5-0.1,0.7
				c-0.1,0.2-0.2,0.4-0.4,0.5C88.2,59.1,87.9,59.2,87.4,59.2z M86.9,58.2h0.5c0.2,0,0.3,0,0.4-0.1c0.1-0.1,0.1-0.2,0.1-0.4v-3.4
				c0-0.2,0-0.4-0.1-0.5c-0.1-0.1-0.2-0.1-0.4-0.1h-0.5V58.2z"/>
			<path class="st0" d="M90.7,59.2h-1v-6.7h1V59.2z"/>
			<path class="st0" d="M94.7,59.2h-0.6l-1.6-3.4v3.4h-1v-6.7H92l1.6,3.4v-3.4h1V59.2z"/>
		</g>
		<g>
			<path class="st0" d="M97.2,42.9c-0.2,0.2-0.5,0.3-0.8,0.3c-0.3,0-0.6-0.1-0.8-0.3c-0.2-0.2-0.3-0.5-0.3-0.8
				c0-0.3,0.1-0.6,0.3-0.8c0.2-0.2,0.5-0.3,0.8-0.3c0.3,0,0.6,0.1,0.8,0.3c0.2,0.2,0.3,0.5,0.3,0.8C97.6,42.4,97.5,42.7,97.2,42.9z
				 M95.8,41.5c-0.2,0.2-0.3,0.4-0.3,0.6c0,0.3,0.1,0.5,0.3,0.7C96,43,96.2,43,96.5,43c0.3,0,0.5-0.1,0.6-0.3
				c0.2-0.2,0.3-0.4,0.3-0.7c0-0.2-0.1-0.5-0.3-0.6c-0.2-0.2-0.4-0.3-0.6-0.3C96.2,41.2,96,41.3,95.8,41.5z M96,42.7v-1.2
				c0.1,0,0.2,0,0.3,0c0.2,0,0.2,0,0.3,0c0.1,0,0.2,0,0.2,0.1c0.1,0.1,0.2,0.2,0.2,0.3c0,0.1,0,0.2-0.1,0.2c-0.1,0-0.1,0.1-0.2,0.1
				c0.1,0,0.1,0,0.2,0.1c0.1,0.1,0.1,0.1,0.1,0.3v0.1c0,0,0,0,0,0c0,0,0,0,0,0l0,0h-0.3c0,0,0-0.1,0-0.2c0-0.1,0-0.1,0-0.1
				c0,0,0-0.1-0.1-0.1c0,0-0.1,0-0.1,0l-0.1,0h-0.1v0.4H96z M96.6,41.8c0,0-0.1,0-0.2,0h-0.1v0.4h0.1c0.1,0,0.1,0,0.2,0
				c0,0,0.1-0.1,0.1-0.1C96.7,41.8,96.6,41.8,96.6,41.8z"/>
		</g>
	</g>
</g>
</svg>
